<?xml version="1.0" standalone="no"?>
<!DOCTYPE svg PUBLIC "-//W3C//DTD SVG 20010904//EN"
 "http://www.w3.org/TR/2001/REC-SVG-20010904/DTD/svg10.dtd">
<svg version="1.0" xmlns="http://www.w3.org/2000/svg"
 width="225.000000pt" height="225.000000pt" viewBox="0 0 225.000000 225.000000"
 preserveAspectRatio="xMidYMid meet">
<metadata>
Created by potrace 1.14, written by Peter Selinger 2001-2017
</metadata>
<g transform="translate(0.000000,225.000000) scale(0.100000,-0.100000)"
fill="#000000" stroke="none">
<path d="M1020 2240 c-442 -45 -804 -329 -953 -747 -79 -219 -80 -504 -3 -729
111 -326 380 -595 704 -703 125 -42 201 -54 357 -54 242 0 425 54 625 184 84
55 254 225 309 309 130 200 184 383 184 625 0 156 -12 232 -54 357 -126 378
-465 673 -853 742 -109 20 -225 26 -316 16z m385 -125 c174 -50 306 -126 437
-253 358 -347 416 -880 142 -1309 -43 -67 -171 -201 -245 -257 -81 -61 -221
-131 -321 -160 -379 -110 -772 -2 -1041 285 -185 197 -278 431 -278 704 0 137
17 237 62 358 134 367 486 637 869 665 132 10 269 -2 375 -33z"/>
<path d="M994 2113 c-30 -4 -31 -6 -38 -65 -3 -34 -6 -99 -6 -144 l0 -84 35 0
c34 0 35 1 35 43 0 23 3 66 7 96 l6 54 32 -89 c29 -83 33 -89 61 -92 29 -3 30
-2 59 87 16 50 32 88 37 85 4 -3 8 -45 8 -95 l0 -89 35 0 35 0 0 133 c0 72 -4
137 -8 144 -4 6 -27 13 -51 15 l-44 3 -31 -92 c-17 -50 -34 -94 -37 -98 -4 -3
-22 38 -40 92 -35 102 -37 103 -95 96z"/>
<path d="M1691 1786 c-45 -58 -84 -112 -87 -119 -2 -7 6 -23 19 -35 l24 -23
97 45 c53 25 96 43 96 41 0 -2 -27 -40 -61 -84 -62 -81 -68 -103 -34 -131 11
-9 40 0 140 46 69 31 125 61 125 66 0 5 -7 20 -16 33 l-16 24 -74 -34 c-81
-37 -81 -37 -17 46 24 30 43 60 43 65 0 6 -11 21 -24 33 l-24 22 -38 -19 c-22
-11 -56 -27 -77 -36 -43 -17 -42 -17 17 62 l39 53 -25 25 -25 26 -82 -106z"/>
<path d="M448 1853 c-14 -3 -146 -158 -171 -199 -4 -7 22 -35 66 -70 39 -32
90 -73 113 -91 l41 -33 50 63 c136 170 141 182 101 232 -19 24 -26 27 -65 22
-40 -4 -43 -3 -43 19 0 12 -12 32 -26 43 -27 21 -34 23 -66 14z m52 -97 c0 -8
-20 -39 -45 -70 -45 -55 -46 -56 -70 -40 -14 9 -25 19 -25 22 0 10 82 111 93
115 17 6 47 -11 47 -27z m93 -58 c9 -13 2 -28 -34 -74 -25 -32 -50 -59 -56
-61 -5 -2 -20 4 -32 14 l-22 18 52 63 c51 64 72 73 92 40z"/>
<path d="M995 1765 c-38 -8 -112 -35 -163 -60 -185 -92 -312 -264 -349 -473
-80 -449 332 -842 781 -747 186 39 363 177 445 347 151 311 53 659 -239 847
-127 82 -322 118 -475 86z m295 -105 c142 -42 269 -148 336 -282 34 -68 63
-173 64 -230 l0 -28 -280 0 -280 0 0 -280 0 -280 -27 0 c-58 1 -163 30 -231
64 -170 85 -294 270 -304 451 l-3 50 278 3 277 2 0 273 c0 151 3 277 7 281 10
9 86 -2 163 -24z"/>
</g>
</svg>
